<svg width="91" height="113" viewBox="0 0 91 113" fill="none" xmlns="http://www.w3.org/2000/svg">
<path d="M70.6875 28.875C72.7188 29.7917 74.5469 30.9167 76.1719 32.25C77.7969 33.5833 79.2031 35.0833 80.3906 36.75C81.5781 38.4167 82.4688 40.1944 83.0625 42.0833C83.6562 43.9722 83.9688 45.9444 84 48H78C78 45.8056 77.5312 43.7361 76.5938 41.7917C75.6562 39.8472 74.3594 38.1528 72.7031 36.7083C71.0469 35.2639 69.1406 34.125 66.9844 33.2917C64.8281 32.4583 62.5 32.0278 60 32C57.5312 32 55.2031 32.4167 53.0156 33.25C50.8281 34.0833 48.9219 35.2361 47.2969 36.7083C45.6719 38.1806 44.3906 39.875 43.4531 41.7917C42.5156 43.7083 42.0312 45.7778 42 48C42 50.5278 41.3594 52.9306 40.0781 55.2083C38.7969 57.4861 37 59.375 34.6875 60.875C36.7188 61.7917 38.5469 62.9167 40.1719 64.25C41.7969 65.5833 43.2031 67.0833 44.3906 68.75C45.5781 70.4167 46.4688 72.1945 47.0625 74.0833C47.6562 75.9722 47.9688 77.9445 48 80H42C42 77.8056 41.5312 75.7361 40.5938 73.7917C39.6562 71.8472 38.3594 70.1528 36.7031 68.7083C35.0469 67.2639 33.1406 66.125 30.9844 65.2917C28.8281 64.4583 26.5 64.0278 24 64C21.5312 64 19.2031 64.4167 17.0156 65.25C14.8281 66.0833 12.9219 67.2361 11.2969 68.7083C9.67188 70.1806 8.39062 71.875 7.45312 73.7917C6.51562 75.7083 6.03125 77.7778 6 80H0C0 77.9722 0.3125 76.0139 0.9375 74.125C1.5625 72.2361 2.45312 70.4583 3.60938 68.7917C4.76562 67.125 6.15625 65.625 7.78125 64.2917C9.40625 62.9583 11.25 61.8194 13.3125 60.875C11.0312 59.375 9.25 57.4861 7.96875 55.2083C6.6875 52.9306 6.03125 50.5278 6 48C6 45.8056 6.46875 43.7361 7.40625 41.7917C8.34375 39.8472 9.64062 38.1528 11.2969 36.7083C12.9531 35.2639 14.8594 34.125 17.0156 33.2917C19.1719 32.4583 21.5 32.0278 24 32C26.8438 32 29.5469 32.5694 32.1094 33.7083C34.6719 34.8472 36.7969 36.4444 38.4844 38.5C39.6719 36.4167 41.1875 34.5556 43.0312 32.9167C44.875 31.2778 46.9688 29.9306 49.3125 28.875C47.0312 27.375 45.25 25.4861 43.9688 23.2083C42.6875 20.9306 42.0312 18.5278 42 16C42 13.8056 42.4688 11.7361 43.4062 9.79167C44.3438 7.84722 45.6406 6.15278 47.2969 4.70833C48.9531 3.26389 50.8594 2.125 53.0156 1.29167C55.1719 0.458333 57.5 0.0277778 60 0C62.4688 0 64.7969 0.416667 66.9844 1.25C69.1719 2.08333 71.0781 3.23611 72.7031 4.70833C74.3281 6.18056 75.6094 7.875 76.5469 9.79167C77.4844 11.7083 77.9688 13.7778 78 16C78 18.5278 77.3594 20.9306 76.0781 23.2083C74.7969 25.4861 73 27.375 70.6875 28.875ZM24 58.6667C25.625 58.6667 27.1719 58.3889 28.6406 57.8333C30.1094 57.2778 31.375 56.5139 32.4375 55.5417C33.5 54.5694 34.3594 53.4444 35.0156 52.1667C35.6719 50.8889 36 49.5 36 48C36 46.5556 35.6875 45.1806 35.0625 43.875C34.4375 42.5694 33.5781 41.4444 32.4844 40.5C31.3906 39.5556 30.1094 38.7917 28.6406 38.2083C27.1719 37.625 25.625 37.3333 24 37.3333C22.3438 37.3333 20.7969 37.6111 19.3594 38.1667C17.9219 38.7222 16.6562 39.4861 15.5625 40.4583C14.4688 41.4306 13.6094 42.5694 12.9844 43.875C12.3594 45.1806 12.0312 46.5556 12 48C12 49.4722 12.3125 50.8472 12.9375 52.125C13.5625 53.4028 14.4219 54.5278 15.5156 55.5C16.6094 56.4722 17.875 57.2361 19.3125 57.7917C20.75 58.3472 22.3125 58.6389 24 58.6667ZM48 16C48 17.4722 48.3125 18.8472 48.9375 20.125C49.5625 21.4028 50.4219 22.5278 51.5156 23.5C52.6094 24.4722 53.875 25.2361 55.3125 25.7917C56.75 26.3472 58.3125 26.6389 60 26.6667C61.625 26.6667 63.1719 26.3889 64.6406 25.8333C66.1094 25.2778 67.375 24.5139 68.4375 23.5417C69.5 22.5694 70.3594 21.4444 71.0156 20.1667C71.6719 18.8889 72 17.5 72 16C72 14.5556 71.6875 13.1806 71.0625 11.875C70.4375 10.5694 69.5781 9.44444 68.4844 8.5C67.3906 7.55556 66.1094 6.79167 64.6406 6.20833C63.1719 5.625 61.625 5.33333 60 5.33333C58.3438 5.33333 56.7969 5.61111 55.3594 6.16667C53.9219 6.72222 52.6562 7.48611 51.5625 8.45833C50.4688 9.43056 49.6094 10.5694 48.9844 11.875C48.3594 13.1806 48.0312 14.5556 48 16Z" fill="black"/>
<path d="M30.166 108.108C29.158 108.108 28.366 107.82 27.79 107.244C27.226 106.668 26.944 105.75 26.944 104.49C26.944 103.422 27.136 102.222 27.52 100.89C27.904 99.558 28.462 98.418 29.194 97.47C29.938 96.522 30.814 96.048 31.822 96.048C32.182 96.048 32.494 96.096 32.758 96.192C32.23 96.504 31.72 97.146 31.228 98.118C30.748 99.09 30.358 100.176 30.058 101.376C29.758 102.576 29.608 103.638 29.608 104.562C29.608 105.21 29.692 105.72 29.86 106.092C30.028 106.464 30.292 106.65 30.652 106.65C31.24 106.65 31.822 106.23 32.398 105.39C32.986 104.538 33.466 103.47 33.838 102.186C34.222 100.902 34.414 99.666 34.414 98.478C34.414 97.734 34.348 97.14 34.216 96.696C34.096 96.24 33.868 95.898 33.532 95.67C33.196 95.442 32.722 95.328 32.11 95.328C31.186 95.328 30.328 95.52 29.536 95.904C28.744 96.276 28.108 96.816 27.628 97.524C27.16 98.22 26.926 99.03 26.926 99.954C26.926 100.278 26.956 100.518 27.016 100.674C27.076 100.818 27.106 100.902 27.106 100.926C26.506 100.926 26.05 100.806 25.738 100.566C25.438 100.326 25.288 99.942 25.288 99.414C25.288 98.586 25.624 97.794 26.296 97.038C26.98 96.282 27.88 95.67 28.996 95.202C30.124 94.734 31.306 94.5 32.542 94.5C34.042 94.5 35.128 94.908 35.8 95.724C36.472 96.54 36.808 97.668 36.808 99.108C36.808 100.392 36.568 101.73 36.088 103.122C35.608 104.514 34.864 105.696 33.856 106.668C32.86 107.628 31.63 108.108 30.166 108.108ZM47.407 108.108C46.723 108.108 46.195 107.928 45.823 107.568C45.463 107.196 45.283 106.74 45.283 106.2C45.283 105.852 45.421 105.012 45.697 103.68H43.699L42.781 108H40.189L42.097 99H44.689L43.915 102.6H45.931L46.741 99H49.153L48.199 103.464C48.079 103.98 47.977 104.43 47.893 104.814C47.809 105.198 47.767 105.462 47.767 105.606C47.767 106.11 48.007 106.362 48.487 106.362C48.823 106.362 49.093 106.248 49.297 106.02C49.501 105.792 49.735 105.378 49.999 104.778H50.755C49.999 106.998 48.883 108.108 47.407 108.108ZM52.1561 108.108C51.4721 108.108 50.9021 107.874 50.4461 107.406C49.9901 106.938 49.7621 106.206 49.7621 105.21C49.7621 104.322 49.9361 103.392 50.2841 102.42C50.6441 101.436 51.1721 100.608 51.8681 99.936C52.5761 99.252 53.4161 98.91 54.3881 98.91C54.8801 98.91 55.2461 98.994 55.4861 99.162C55.7261 99.33 55.8461 99.552 55.8461 99.828V99.954L56.0441 99H58.6361L57.3401 105.12C57.2921 105.3 57.2681 105.492 57.2681 105.696C57.2681 106.212 57.5141 106.47 58.0061 106.47C58.3421 106.47 58.6301 106.314 58.8701 106.002C59.1221 105.69 59.3201 105.282 59.4641 104.778H60.2201C59.7761 106.074 59.2241 106.956 58.5641 107.424C57.9161 107.88 57.2621 108.108 56.6021 108.108C56.0981 108.108 55.6901 107.97 55.3781 107.694C55.0781 107.406 54.8981 106.992 54.8381 106.452C54.4901 106.944 54.1001 107.346 53.6681 107.658C53.2481 107.958 52.7441 108.108 52.1561 108.108ZM53.3261 106.362C53.6261 106.362 53.9201 106.224 54.2081 105.948C54.5081 105.66 54.7121 105.27 54.8201 104.778L55.6841 100.71C55.6841 100.554 55.6241 100.404 55.5041 100.26C55.3841 100.104 55.1981 100.026 54.9461 100.026C54.4661 100.026 54.0341 100.308 53.6501 100.872C53.2661 101.424 52.9661 102.096 52.7501 102.888C52.5341 103.668 52.4261 104.358 52.4261 104.958C52.4261 105.558 52.5101 105.942 52.6781 106.11C52.8581 106.278 53.0741 106.362 53.3261 106.362ZM61.9007 108.108C61.0247 108.108 60.3407 107.88 59.8487 107.424C59.3567 106.956 59.1107 106.23 59.1107 105.246C59.1107 104.418 59.2727 103.506 59.5967 102.51C59.9327 101.514 60.4607 100.656 61.1807 99.936C61.9127 99.204 62.8367 98.838 63.9527 98.838C64.6847 98.838 65.2007 98.994 65.5007 99.306C65.8007 99.618 65.9507 100.02 65.9507 100.512C65.9507 100.944 65.8547 101.268 65.6627 101.484C65.4827 101.7 65.2607 101.808 64.9967 101.808C64.7687 101.808 64.5587 101.736 64.3667 101.592C64.5107 101.208 64.5827 100.854 64.5827 100.53C64.5827 100.038 64.4207 99.792 64.0967 99.792C63.7367 99.792 63.3767 100.092 63.0167 100.692C62.6567 101.28 62.3567 101.988 62.1167 102.816C61.8887 103.632 61.7747 104.34 61.7747 104.94C61.7747 105.936 62.1347 106.434 62.8547 106.434C63.1787 106.434 63.5387 106.338 63.9347 106.146C64.3427 105.942 64.7027 105.708 65.0147 105.444C64.6907 107.22 63.6527 108.108 61.9007 108.108Z" fill="black"/>
</svg>
