<svg width="85" height="106" viewBox="0 0 85 106" fill="none" xmlns="http://www.w3.org/2000/svg">
<g clip-path="url(#clip0)">
<path d="M61.7887 37.314C62.734 37.314 63.6363 37.478 64.4957 37.8062C65.3551 38.1343 66.1285 38.6265 66.816 39.2827L73.9058 46.0503C74.5719 46.686 75.0767 47.4141 75.4205 48.2344C75.7642 49.0547 75.9469 49.9263 75.9683 50.8491C75.9683 51.7515 75.7965 52.6128 75.4527 53.4331C75.109 54.2534 74.5933 54.9917 73.9058 55.6479L73.4547 56.0786C72.2945 57.186 71.231 58.1704 70.2642 59.0317C69.2974 59.8931 68.2877 60.6108 67.2349 61.1851C66.1822 61.7593 65.0113 62.2104 63.7222 62.5386C62.4332 62.8667 60.8971 63.0205 59.1138 63C56.4283 63 53.6676 62.6001 50.8316 61.8003C47.9957 61.0005 45.1812 59.8931 42.3883 58.478C39.5953 57.063 36.8453 55.3813 34.1383 53.4331C31.4312 51.4849 28.8853 49.3623 26.5006 47.0654C24.1158 44.7686 21.9029 42.3281 19.8619 39.7441C17.8209 37.1602 16.0806 34.5352 14.6412 31.8691C13.2017 29.2031 12.0631 26.5269 11.2252 23.8403C10.3873 21.1538 9.97908 18.5698 10.0006 16.0884C10.0006 14.3862 10.151 12.9302 10.4517 11.7202C10.7525 10.5103 11.2144 9.40283 11.8375 8.39795C12.4605 7.39307 13.2125 6.43945 14.0933 5.53711C14.9742 4.63477 16.0054 3.61963 17.1871 2.4917L17.7027 1.99951C18.3687 1.36377 19.1314 0.871582 19.9908 0.522949C20.8502 0.174316 21.7633 0 22.7301 0C23.6754 0 24.5777 0.174316 25.4371 0.522949C26.2965 0.871582 27.0699 1.36377 27.7574 1.99951L34.8472 8.76709C35.5133 9.40283 36.0181 10.1309 36.3619 10.9512C36.7056 11.7715 36.8883 12.6431 36.9097 13.5659C36.9097 14.4683 36.7486 15.2681 36.4263 15.9653C36.1041 16.6626 35.7066 17.3086 35.234 17.9033C34.7613 18.498 34.2457 19.021 33.6871 19.4722C33.1285 19.9233 32.6021 20.3848 32.108 20.8564C31.6138 21.3281 31.2164 21.7793 30.9156 22.21C30.6148 22.6406 30.4537 23.1431 30.4322 23.7173C30.4322 24.4966 30.7222 25.1631 31.3023 25.7168L49.0592 42.6665C49.6392 43.2202 50.3375 43.4971 51.1539 43.4971C51.7125 43.4971 52.2281 43.3433 52.7008 43.0356C53.1734 42.728 53.6568 42.3486 54.151 41.8975C54.6451 41.4463 55.1285 40.9541 55.6012 40.4209C56.0738 39.8877 56.6217 39.3853 57.2447 38.9136C57.8678 38.4419 58.5338 38.0625 59.2428 37.7754C59.9517 37.4883 60.8004 37.3345 61.7887 37.314ZM59.1138 59.0625C60.6607 59.0625 61.9498 58.9292 62.981 58.6626C64.0123 58.396 64.9576 57.9961 65.817 57.4629C66.6763 56.9297 67.4928 56.2734 68.2662 55.4941C69.0396 54.7148 69.9527 53.833 71.0055 52.8486C71.5855 52.2949 71.8756 51.6284 71.8756 50.8491C71.8756 50.48 71.7252 50.0493 71.4244 49.5571C71.1236 49.0649 70.7154 48.5317 70.1998 47.9575C69.6842 47.3833 69.1363 46.8193 68.5562 46.2656C67.9762 45.7119 67.3746 45.1582 66.7515 44.6045C66.1285 44.0508 65.5806 43.5688 65.108 43.1587C64.6353 42.7485 64.2379 42.3896 63.9156 42.082C63.3355 41.5283 62.6265 41.2515 61.7887 41.2515C61.2301 41.2515 60.7144 41.4053 60.2418 41.7129C59.7691 42.0205 59.2965 42.3999 58.8238 42.8511C58.3512 43.3022 57.8678 43.7944 57.3736 44.3276C56.8795 44.8608 56.3209 45.3633 55.6978 45.835C55.0748 46.3066 54.4088 46.686 53.6998 46.9731C52.9908 47.2603 52.1422 47.4141 51.1539 47.4346C50.2086 47.4346 49.3062 47.2705 48.4469 46.9424C47.5875 46.6143 46.814 46.1221 46.1265 45.4658L28.3697 28.5161C27.7037 27.8804 27.1988 27.1523 26.8551 26.332C26.5113 25.5117 26.3287 24.6401 26.3072 23.7173C26.3072 22.8149 26.4683 22.0151 26.7906 21.3179C27.1129 20.6206 27.5103 19.9746 27.983 19.3799C28.4556 18.7852 28.9713 18.2622 29.5299 17.811C30.0885 17.3599 30.6148 16.8882 31.109 16.396C31.6031 15.9038 32.0006 15.4526 32.3013 15.0425C32.6021 14.6323 32.7633 14.1401 32.7847 13.5659C32.7847 12.7661 32.4947 12.0894 31.9146 11.5356C31.6353 11.269 31.2701 10.8999 30.8189 10.4282C30.3678 9.95654 29.8629 9.43359 29.3043 8.85938C28.7457 8.28516 28.1656 7.71094 27.564 7.13672C26.9625 6.5625 26.3609 6.0293 25.7594 5.53711C25.1578 5.04492 24.6099 4.66553 24.1158 4.39893C23.6217 4.13232 23.1597 3.97852 22.7301 3.9375C21.9136 3.9375 21.2154 4.21436 20.6353 4.76807L17.8961 7.38281C17.1011 8.1416 16.4136 8.9209 15.8336 9.7207C15.2535 10.5205 14.8238 11.4126 14.5445 12.397C14.2652 13.3813 14.1148 14.6118 14.0933 16.0884C14.0933 18.3853 14.4801 20.7539 15.2535 23.1943C16.0269 25.6348 17.1119 28.0752 18.5084 30.5156C19.9049 32.9561 21.5484 35.3555 23.439 37.7139C25.3297 40.0723 27.3922 42.3179 29.6265 44.4507C31.8609 46.5835 34.2135 48.5317 36.6842 50.2954C39.1549 52.0591 41.6685 53.5972 44.2252 54.9097C46.7818 56.2222 49.317 57.2373 51.8306 57.9551C54.3443 58.6729 56.7721 59.042 59.1138 59.0625Z" fill="black"/>
</g>
<path d="M7.956 101.306C7.02 101.306 6.552 100.904 6.552 100.1C6.552 99.836 6.588 99.536 6.66 99.2C6.744 98.852 6.858 98.408 7.002 97.868C7.17 97.304 7.296 96.824 7.38 96.428C7.464 96.032 7.506 95.678 7.506 95.366C7.506 94.55 7.146 94.142 6.426 94.142C6.234 94.142 6.036 94.166 5.832 94.214L4.392 101H1.8L4.41 88.76C3.606 89.096 2.982 89.6 2.538 90.272C2.106 90.944 1.89 91.754 1.89 92.702C1.89 93.146 1.932 93.458 2.016 93.638C2.1 93.806 2.142 93.902 2.142 93.926C1.494 93.926 1.008 93.794 0.684 93.53C0.372 93.254 0.216 92.804 0.216 92.18C0.216 91.412 0.528 90.668 1.152 89.948C1.788 89.216 2.598 88.628 3.582 88.184C4.566 87.728 5.55 87.5 6.534 87.5C6.702 87.5 6.942 87.512 7.254 87.536L6.102 92.918C6.342 92.21 6.672 91.49 7.092 90.758C7.524 90.026 7.914 89.462 8.262 89.066C9.114 88.022 9.996 87.5 10.908 87.5C11.292 87.5 11.61 87.608 11.862 87.824C12.126 88.028 12.258 88.322 12.258 88.706C12.258 89.138 12.144 89.456 11.916 89.66C11.688 89.864 11.412 89.966 11.088 89.966C10.572 89.966 10.218 89.726 10.026 89.246C9.414 89.618 8.856 90.146 8.352 90.83C7.86 91.514 7.386 92.354 6.93 93.35C7.122 93.338 7.374 93.332 7.686 93.332C8.502 93.332 9.078 93.506 9.414 93.854C9.75 94.19 9.918 94.658 9.918 95.258C9.918 95.606 9.876 95.978 9.792 96.374C9.708 96.758 9.588 97.238 9.432 97.814C9.336 98.186 9.246 98.552 9.162 98.912C9.078 99.272 9.036 99.572 9.036 99.812C9.036 100.088 9.096 100.334 9.216 100.55C9.348 100.766 9.522 100.916 9.738 101C9.006 101.204 8.412 101.306 7.956 101.306ZM14.0538 101.072C13.1658 101.072 12.4638 100.844 11.9478 100.388C11.4318 99.932 11.1738 99.212 11.1738 98.228C11.1738 97.412 11.3418 96.506 11.6778 95.51C12.0138 94.514 12.5538 93.656 13.2978 92.936C14.0418 92.204 14.9778 91.838 16.1058 91.838C17.6418 91.838 18.4098 92.798 18.4098 94.718V94.736C18.4458 94.748 18.5118 94.754 18.6078 94.754C19.0038 94.754 19.4598 94.652 19.9758 94.448C20.4918 94.232 20.9598 93.974 21.3798 93.674L21.5418 94.16C21.1938 94.532 20.7378 94.85 20.1738 95.114C19.6218 95.366 19.0158 95.546 18.3558 95.654C18.2598 96.746 18.0138 97.7 17.6178 98.516C17.2218 99.332 16.7118 99.962 16.0878 100.406C15.4638 100.85 14.7858 101.072 14.0538 101.072ZM14.7738 99.452C15.0618 99.452 15.3498 99.29 15.6378 98.966C15.9258 98.63 16.1778 98.18 16.3938 97.616C16.6098 97.04 16.7658 96.404 16.8618 95.708C16.5378 95.636 16.3758 95.384 16.3758 94.952C16.3758 94.46 16.5618 94.136 16.9338 93.98C16.9098 93.584 16.8498 93.314 16.7538 93.17C16.6578 93.014 16.4898 92.936 16.2498 92.936C15.8538 92.936 15.4698 93.224 15.0978 93.8C14.7258 94.376 14.4258 95.066 14.1978 95.87C13.9698 96.674 13.8558 97.382 13.8558 97.994C13.8558 98.57 13.9218 98.96 14.0538 99.164C14.1858 99.356 14.4258 99.452 14.7738 99.452ZM25.8699 101.108C25.1859 101.108 24.6579 100.928 24.2859 100.568C23.9259 100.196 23.7459 99.74 23.7459 99.2C23.7459 98.852 23.8839 98.012 24.1599 96.68H22.1619L21.2439 101H18.6519L20.5599 92H23.1519L22.3779 95.6H24.3939L25.2039 92H27.6159L26.6619 96.464C26.5419 96.98 26.4399 97.43 26.3559 97.814C26.2719 98.198 26.2299 98.462 26.2299 98.606C26.2299 99.11 26.4699 99.362 26.9499 99.362C27.2859 99.362 27.5559 99.248 27.7599 99.02C27.9639 98.792 28.1979 98.378 28.4619 97.778H29.2179C28.4619 99.998 27.3459 101.108 25.8699 101.108ZM39.403 101.108C38.671 101.108 38.131 100.916 37.783 100.532C37.447 100.136 37.279 99.65 37.279 99.074C37.279 98.822 37.309 98.54 37.369 98.228C37.429 97.904 37.489 97.592 37.549 97.292C37.621 96.992 37.669 96.8 37.693 96.716C37.789 96.296 37.879 95.882 37.963 95.474C38.047 95.066 38.089 94.736 38.089 94.484C38.089 93.872 37.873 93.566 37.441 93.566C37.129 93.566 36.853 93.722 36.613 94.034C36.373 94.334 36.181 94.73 36.037 95.222L34.813 101H32.221L33.535 94.79C33.571 94.646 33.589 94.496 33.589 94.34C33.589 93.812 33.409 93.548 33.049 93.548C32.713 93.548 32.419 93.704 32.167 94.016C31.927 94.316 31.735 94.718 31.591 95.222L30.367 101H27.775L29.683 92H32.275L32.077 92.936C32.689 92.252 33.421 91.91 34.273 91.91C35.329 91.91 35.947 92.426 36.127 93.458C36.787 92.438 37.621 91.928 38.629 91.928C39.241 91.928 39.727 92.096 40.087 92.432C40.447 92.768 40.627 93.278 40.627 93.962C40.627 94.31 40.585 94.7 40.501 95.132C40.417 95.552 40.297 96.068 40.141 96.68C40.045 97.052 39.955 97.418 39.871 97.778C39.799 98.126 39.763 98.402 39.763 98.606C39.763 98.846 39.817 99.032 39.925 99.164C40.033 99.296 40.219 99.362 40.483 99.362C40.843 99.362 41.131 99.236 41.347 98.984C41.563 98.72 41.779 98.318 41.995 97.778H42.751C42.307 99.098 41.791 99.986 41.203 100.442C40.627 100.886 40.027 101.108 39.403 101.108ZM44.1541 101.108C43.4701 101.108 42.9001 100.874 42.4441 100.406C41.9881 99.938 41.7601 99.206 41.7601 98.21C41.7601 97.322 41.9341 96.392 42.2821 95.42C42.6421 94.436 43.1701 93.608 43.8661 92.936C44.5741 92.252 45.4141 91.91 46.3861 91.91C46.8781 91.91 47.2441 91.994 47.4841 92.162C47.7241 92.33 47.8441 92.552 47.8441 92.828V92.954L48.0421 92H50.6341L49.3381 98.12C49.2901 98.3 49.2661 98.492 49.2661 98.696C49.2661 99.212 49.5121 99.47 50.0041 99.47C50.3401 99.47 50.6281 99.314 50.8681 99.002C51.1201 98.69 51.3181 98.282 51.4621 97.778H52.2181C51.7741 99.074 51.2221 99.956 50.5621 100.424C49.9141 100.88 49.2601 101.108 48.6001 101.108C48.0961 101.108 47.6881 100.97 47.3761 100.694C47.0761 100.406 46.8961 99.992 46.8361 99.452C46.4881 99.944 46.0981 100.346 45.6661 100.658C45.2461 100.958 44.7421 101.108 44.1541 101.108ZM45.3241 99.362C45.6241 99.362 45.9181 99.224 46.2061 98.948C46.5061 98.66 46.7101 98.27 46.8181 97.778L47.6821 93.71C47.6821 93.554 47.6221 93.404 47.5021 93.26C47.3821 93.104 47.1961 93.026 46.9441 93.026C46.4641 93.026 46.0321 93.308 45.6481 93.872C45.2641 94.424 44.9641 95.096 44.7481 95.888C44.5321 96.668 44.4241 97.358 44.4241 97.958C44.4241 98.558 44.5081 98.942 44.6761 99.11C44.8561 99.278 45.0721 99.362 45.3241 99.362ZM57.9668 101.108C57.2468 101.108 56.7008 100.934 56.3288 100.586C55.9688 100.226 55.7888 99.734 55.7888 99.11C55.7888 98.942 55.8308 98.606 55.9148 98.102C55.9748 97.802 56.0048 97.568 56.0048 97.4C56.0048 96.824 55.7768 96.536 55.3208 96.536C55.1648 96.536 55.0148 96.584 54.8708 96.68C54.7388 96.764 54.5048 96.938 54.1688 97.202L53.3768 101H50.7847L52.7108 92H55.3028L54.5288 95.564C55.3448 94.604 55.9928 93.872 56.4728 93.368C56.9528 92.864 57.3908 92.486 57.7868 92.234C58.1948 91.97 58.5908 91.838 58.9748 91.838C59.7188 91.838 60.0908 92.234 60.0908 93.026C60.0908 93.386 59.9888 93.674 59.7848 93.89C59.5928 94.094 59.3168 94.196 58.9568 94.196C58.6208 94.196 58.3688 94.106 58.2008 93.926C58.0328 93.734 57.9548 93.518 57.9668 93.278C57.7388 93.422 57.5348 93.584 57.3548 93.764C57.1748 93.944 56.9768 94.178 56.7607 94.466C56.5088 94.802 56.2628 95.09 56.0228 95.33C56.2628 95.282 56.5148 95.258 56.7788 95.258C57.4028 95.258 57.8408 95.396 58.0928 95.672C58.3568 95.948 58.4888 96.368 58.4888 96.932C58.4888 97.1 58.4528 97.376 58.3808 97.76C58.3088 98.168 58.2728 98.48 58.2728 98.696C58.2728 99.14 58.5128 99.362 58.9928 99.362C59.3288 99.362 59.5928 99.248 59.7848 99.02C59.9888 98.792 60.2228 98.378 60.4868 97.778H61.2428C60.4868 99.998 59.3948 101.108 57.9668 101.108ZM71.4303 101.108C70.6983 101.108 70.1583 100.916 69.8103 100.532C69.4743 100.136 69.3063 99.65 69.3063 99.074C69.3063 98.822 69.3363 98.54 69.3963 98.228C69.4563 97.904 69.5163 97.592 69.5763 97.292C69.6483 96.992 69.6963 96.8 69.7203 96.716C69.8163 96.296 69.9063 95.882 69.9903 95.474C70.0743 95.066 70.1163 94.736 70.1163 94.484C70.1163 93.872 69.9003 93.566 69.4683 93.566C69.1563 93.566 68.8803 93.722 68.6403 94.034C68.4003 94.334 68.2083 94.73 68.0643 95.222L66.8403 101H64.2483L65.5623 94.79C65.5983 94.646 65.6163 94.496 65.6163 94.34C65.6163 93.812 65.4363 93.548 65.0763 93.548C64.7403 93.548 64.4463 93.704 64.1943 94.016C63.9543 94.316 63.7623 94.718 63.6183 95.222L62.3943 101H59.8023L61.7103 92H64.3023L64.1043 92.936C64.7163 92.252 65.4483 91.91 66.3003 91.91C67.3563 91.91 67.9743 92.426 68.1543 93.458C68.8143 92.438 69.6483 91.928 70.6563 91.928C71.2683 91.928 71.7543 92.096 72.1143 92.432C72.4743 92.768 72.6543 93.278 72.6543 93.962C72.6543 94.31 72.6123 94.7 72.5283 95.132C72.4443 95.552 72.3243 96.068 72.1683 96.68C72.0723 97.052 71.9823 97.418 71.8983 97.778C71.8263 98.126 71.7903 98.402 71.7903 98.606C71.7903 98.846 71.8443 99.032 71.9523 99.164C72.0603 99.296 72.2463 99.362 72.5103 99.362C72.8703 99.362 73.1583 99.236 73.3743 98.984C73.5903 98.72 73.8063 98.318 74.0223 97.778H74.7783C74.3343 99.098 73.8183 99.986 73.2303 100.442C72.6543 100.886 72.0543 101.108 71.4303 101.108ZM76.4875 101.108C75.6715 101.108 75.0355 100.904 74.5795 100.496C74.1355 100.088 73.9135 99.524 73.9135 98.804C73.9135 98.564 73.9555 98.222 74.0395 97.778L75.2275 92H77.7115L76.3795 98.336C76.3435 98.432 76.3255 98.6 76.3255 98.84C76.3255 99.332 76.5955 99.578 77.1355 99.578C77.4595 99.578 77.7715 99.446 78.0715 99.182C78.3715 98.906 78.6115 98.54 78.7915 98.084C78.9715 97.628 79.0615 97.13 79.0615 96.59C79.0615 96.29 78.9715 96.062 78.7915 95.906C78.6355 96.014 78.4615 96.068 78.2695 96.068C78.0655 96.068 77.8795 96.002 77.7115 95.87C77.5555 95.738 77.4775 95.546 77.4775 95.294C77.4775 95.03 77.5795 94.826 77.7835 94.682C77.9875 94.538 78.2215 94.466 78.4855 94.466C78.7615 94.466 79.0075 94.502 79.2235 94.574C79.9915 94.226 80.9095 93.728 81.9775 93.08C82.8415 92.564 83.4655 92.204 83.8495 92H84.9655L83.6515 98.12C83.6035 98.3 83.5795 98.492 83.5795 98.696C83.5795 98.936 83.6335 99.11 83.7415 99.218C83.8615 99.314 84.0535 99.362 84.3175 99.362C84.5335 99.362 84.7255 99.326 84.8935 99.254C84.8455 99.854 84.6295 100.316 84.2455 100.64C83.8735 100.952 83.4295 101.108 82.9135 101.108C82.3855 101.108 81.9595 100.928 81.6355 100.568C81.3235 100.208 81.1675 99.668 81.1675 98.948C81.1675 98.648 81.2155 98.258 81.3115 97.778L82.1035 94.07C81.5395 94.43 80.8675 94.82 80.0875 95.24C80.3755 95.684 80.5195 96.284 80.5195 97.04C80.5195 97.604 80.3695 98.204 80.0695 98.84C79.7695 99.464 79.3135 99.998 78.7015 100.442C78.1015 100.886 77.3635 101.108 76.4875 101.108Z" fill="black"/>
<defs>
<clipPath id="clip0">
<rect width="66" height="63" fill="white" transform="translate(10)"/>
</clipPath>
</defs>
</svg>
