<svg width="126" height="130" viewBox="0 0 126 130" fill="none" xmlns="http://www.w3.org/2000/svg">
<path d="M78.4624 38.8845H70.6162V45.3652H78.4624V38.8845ZM54.9237 77.769H47.0775V84.2497H54.9237V77.769ZM31.385 38.8845H23.5387V45.3652H31.385V38.8845ZM54.9237 38.8845H47.0775V45.3652H54.9237V38.8845ZM78.4624 51.846H70.6162V58.3267H78.4624V51.846ZM102.001 51.846H94.1549V58.3267H102.001V51.846ZM31.385 51.846H23.5387V58.3267H31.385V51.846ZM54.9237 51.846H47.0775V58.3267H54.9237V51.846ZM78.4624 64.8075H70.6162V71.2882H78.4624V64.8075ZM102.001 64.8075H94.1549V71.2882H102.001V64.8075ZM31.385 64.8075H23.5387V71.2882H31.385V64.8075ZM54.9237 64.8075H47.0775V71.2882H54.9237V64.8075ZM78.4624 77.769H70.6162V84.2497H78.4624V77.769ZM102.001 77.769H94.1549V84.2497H102.001V77.769ZM0 6.48075V97.2112H125.54V6.48075H102.001V0H94.1549V6.48075H31.385V0H23.5387V6.48075H0ZM117.694 12.9615V25.923H7.84624V12.9615H23.5387V19.4422H31.385V12.9615H94.1549V19.4422H102.001V12.9615H117.694ZM7.84624 90.7305V32.4037H117.694V90.7305H7.84624Z" fill="black"/>
<path d="M33.284 125.288C31.928 125.288 30.932 124.946 30.296 124.262C29.66 123.578 29.342 122.444 29.342 120.86C29.342 119.6 29.552 118.244 29.972 116.792C30.404 115.34 31.088 114.098 32.024 113.066C32.972 112.022 34.172 111.5 35.624 111.5C36.524 111.5 37.25 111.698 37.802 112.094C38.354 112.49 38.63 113.096 38.63 113.912C38.63 114.428 38.528 114.836 38.324 115.136C38.12 115.424 37.802 115.568 37.37 115.568C36.938 115.568 36.596 115.412 36.344 115.1C36.56 114.992 36.752 114.776 36.92 114.452C37.088 114.128 37.172 113.792 37.172 113.444C37.172 113.12 37.082 112.856 36.902 112.652C36.734 112.448 36.458 112.346 36.074 112.346C35.438 112.346 34.832 112.784 34.256 113.66C33.68 114.524 33.212 115.616 32.852 116.936C32.504 118.256 32.33 119.528 32.33 120.752C32.33 121.664 32.486 122.36 32.798 122.84C33.11 123.32 33.674 123.56 34.49 123.56C35.198 123.56 35.852 123.404 36.452 123.092C37.052 122.78 37.568 122.336 38 121.76L38.414 121.94C38.114 122.696 37.67 123.326 37.082 123.83C36.494 124.334 35.864 124.706 35.192 124.946C34.52 125.174 33.884 125.288 33.284 125.288ZM40.5753 125.072C39.6873 125.072 38.9853 124.844 38.4693 124.388C37.9533 123.932 37.6953 123.212 37.6953 122.228C37.6953 121.412 37.8633 120.506 38.1993 119.51C38.5353 118.514 39.0753 117.656 39.8193 116.936C40.5633 116.204 41.4993 115.838 42.6273 115.838C44.1633 115.838 44.9313 116.798 44.9313 118.718V118.736C44.9673 118.748 45.0333 118.754 45.1293 118.754C45.5253 118.754 45.9813 118.652 46.4973 118.448C47.0133 118.232 47.4813 117.974 47.9013 117.674L48.0633 118.16C47.7153 118.532 47.2593 118.85 46.6953 119.114C46.1433 119.366 45.5373 119.546 44.8773 119.654C44.7813 120.746 44.5353 121.7 44.1393 122.516C43.7433 123.332 43.2333 123.962 42.6093 124.406C41.9853 124.85 41.3073 125.072 40.5753 125.072ZM41.2953 123.452C41.5833 123.452 41.8713 123.29 42.1593 122.966C42.4473 122.63 42.6993 122.18 42.9153 121.616C43.1313 121.04 43.2873 120.404 43.3833 119.708C43.0593 119.636 42.8973 119.384 42.8973 118.952C42.8973 118.46 43.0833 118.136 43.4553 117.98C43.4313 117.584 43.3713 117.314 43.2753 117.17C43.1793 117.014 43.0113 116.936 42.7713 116.936C42.3753 116.936 41.9913 117.224 41.6193 117.8C41.2473 118.376 40.9473 119.066 40.7193 119.87C40.4913 120.674 40.3773 121.382 40.3773 121.994C40.3773 122.57 40.4433 122.96 40.5753 123.164C40.7073 123.356 40.9473 123.452 41.2953 123.452ZM48.5034 125.072C47.5794 125.072 46.8654 124.826 46.3614 124.334C45.8694 123.83 45.6234 123.062 45.6234 122.03C45.6234 121.094 45.8154 120.2 46.1994 119.348C46.5954 118.496 47.1654 117.806 47.9094 117.278C48.6534 116.75 49.5294 116.486 50.5374 116.486L50.8434 116.504C50.6514 116.276 50.3574 115.964 49.9614 115.568C49.5174 115.136 49.1874 114.77 48.9714 114.47C48.7554 114.158 48.6474 113.816 48.6474 113.444C48.6474 112.988 48.8034 112.652 49.1154 112.436C49.4274 112.22 49.9194 112.112 50.5914 112.112H53.3274H53.8854C54.1974 112.112 54.4254 112.094 54.5694 112.058C54.7134 112.022 54.8274 111.95 54.9114 111.842C54.9954 111.722 55.0734 111.524 55.1454 111.248H55.9374C55.7454 112.184 55.5354 112.88 55.3074 113.336C55.0794 113.792 54.7794 114.104 54.4074 114.272C54.0474 114.44 53.5434 114.524 52.8954 114.524H51.1674C51.0954 114.524 51.0354 114.542 50.9874 114.578C50.9514 114.602 50.9334 114.656 50.9334 114.74C50.9334 114.788 51.0354 114.944 51.2394 115.208C51.6834 115.748 52.0614 116.33 52.3734 116.954C52.6854 117.578 52.8414 118.31 52.8414 119.15C52.8414 120.062 52.6614 120.98 52.3014 121.904C51.9534 122.816 51.4494 123.572 50.7894 124.172C50.1294 124.772 49.3674 125.072 48.5034 125.072ZM49.1874 123.452C49.6794 123.452 50.0874 123.152 50.4114 122.552C50.7354 121.952 50.9694 121.274 51.1134 120.518C51.2694 119.762 51.3474 119.18 51.3474 118.772C51.3474 118.316 51.2934 118.004 51.1854 117.836C51.0774 117.668 50.9034 117.584 50.6634 117.584C50.1354 117.584 49.6914 117.872 49.3314 118.448C48.9714 119.024 48.7014 119.678 48.5214 120.41C48.3414 121.142 48.2514 121.712 48.2514 122.12C48.2514 122.636 48.3174 122.99 48.4494 123.182C48.5934 123.362 48.8394 123.452 49.1874 123.452ZM56.0578 125.108C55.2418 125.108 54.6058 124.904 54.1498 124.496C53.7058 124.088 53.4838 123.524 53.4838 122.804C53.4838 122.444 53.5258 122.102 53.6098 121.778L54.7978 116H57.2818L55.9498 122.336C55.9138 122.432 55.8958 122.6 55.8958 122.84C55.8958 123.332 56.1658 123.578 56.7058 123.578C57.0298 123.578 57.3418 123.446 57.6418 123.182C57.9418 122.906 58.1818 122.54 58.3618 122.084C58.5418 121.628 58.6318 121.13 58.6318 120.59C58.6318 120.29 58.5418 120.062 58.3618 119.906C58.2058 120.014 58.0318 120.068 57.8398 120.068C57.6358 120.068 57.4498 120.002 57.2818 119.87C57.1258 119.738 57.0478 119.546 57.0478 119.294C57.0478 119.03 57.1498 118.826 57.3538 118.682C57.5578 118.538 57.7918 118.466 58.0558 118.466C58.3318 118.466 58.5778 118.502 58.7938 118.574C59.5618 118.226 60.4798 117.728 61.5478 117.08C62.4118 116.564 63.0358 116.204 63.4198 116H64.5358L63.5818 120.464C63.4618 120.98 63.3598 121.43 63.2758 121.814C63.1918 122.198 63.1498 122.462 63.1498 122.606C63.1498 123.11 63.3898 123.362 63.8698 123.362C64.2058 123.362 64.4758 123.248 64.6798 123.02C64.8838 122.792 65.1178 122.378 65.3818 121.778H66.1378C65.3818 123.998 64.2718 125.108 62.8078 125.108C62.1118 125.108 61.5838 124.922 61.2238 124.55C60.8638 124.166 60.6838 123.698 60.6838 123.146C60.6838 122.714 61.0138 121.022 61.6738 118.07C61.1098 118.43 60.4378 118.82 59.6578 119.24C59.9458 119.684 60.0898 120.284 60.0898 121.04C60.0898 121.604 59.9398 122.204 59.6398 122.84C59.3398 123.464 58.8838 123.998 58.2718 124.442C57.6718 124.886 56.9338 125.108 56.0578 125.108ZM76.3307 125.108C75.5987 125.108 75.0587 124.916 74.7107 124.532C74.3747 124.136 74.2067 123.65 74.2067 123.074C74.2067 122.822 74.2367 122.54 74.2967 122.228C74.3567 121.904 74.4167 121.592 74.4767 121.292C74.5487 120.992 74.5967 120.8 74.6207 120.716C74.7167 120.296 74.8067 119.882 74.8907 119.474C74.9747 119.066 75.0167 118.736 75.0167 118.484C75.0167 117.872 74.8007 117.566 74.3687 117.566C74.0567 117.566 73.7807 117.722 73.5407 118.034C73.3007 118.334 73.1087 118.73 72.9647 119.222L71.7407 125H69.1487L70.4627 118.79C70.4987 118.646 70.5167 118.496 70.5167 118.34C70.5167 117.812 70.3367 117.548 69.9767 117.548C69.6407 117.548 69.3467 117.704 69.0947 118.016C68.8547 118.316 68.6627 118.718 68.5187 119.222L67.2947 125H64.7027L66.6107 116H69.2027L69.0047 116.936C69.6167 116.252 70.3487 115.91 71.2007 115.91C72.2567 115.91 72.8747 116.426 73.0547 117.458C73.7147 116.438 74.5487 115.928 75.5567 115.928C76.1687 115.928 76.6547 116.096 77.0147 116.432C77.3747 116.768 77.5547 117.278 77.5547 117.962C77.5547 118.31 77.5127 118.7 77.4287 119.132C77.3447 119.552 77.2247 120.068 77.0687 120.68C76.9727 121.052 76.8827 121.418 76.7987 121.778C76.7267 122.126 76.6907 122.402 76.6907 122.606C76.6907 122.846 76.7447 123.032 76.8527 123.164C76.9607 123.296 77.1467 123.362 77.4107 123.362C77.7707 123.362 78.0587 123.236 78.2747 122.984C78.4907 122.72 78.7067 122.318 78.9227 121.778H79.6787C79.2347 123.098 78.7187 123.986 78.1307 124.442C77.5547 124.886 76.9547 125.108 76.3307 125.108ZM80.7039 125.108C80.1279 125.108 79.6599 124.928 79.2999 124.568C78.9519 124.208 78.7779 123.668 78.7779 122.948C78.7779 122.648 78.8259 122.258 78.9219 121.778L80.1459 116H82.7379L81.4419 122.12C81.4059 122.3 81.3879 122.468 81.3879 122.624C81.3879 123.116 81.5679 123.362 81.9279 123.362C82.2639 123.362 82.5519 123.224 82.7919 122.948C83.0319 122.66 83.2239 122.27 83.3679 121.778L84.5919 116H87.1839L85.8879 122.12C85.8399 122.3 85.8159 122.492 85.8159 122.696C85.8159 122.936 85.8699 123.11 85.9779 123.218C86.0979 123.314 86.2899 123.362 86.5539 123.362C86.8899 123.362 87.1779 123.218 87.4179 122.93C87.6699 122.642 87.8679 122.258 88.0119 121.778H88.7679C88.3239 123.074 87.7719 123.956 87.1119 124.424C86.4639 124.88 85.8099 125.108 85.1499 125.108C84.6339 125.108 84.2199 124.964 83.9079 124.676C83.6079 124.388 83.4279 123.962 83.3679 123.398C82.9599 124.058 82.5279 124.508 82.0719 124.748C81.6279 124.988 81.1719 125.108 80.7039 125.108ZM89.3418 125.108C88.6938 125.108 88.1958 124.916 87.8478 124.532C87.4998 124.136 87.3258 123.65 87.3258 123.074C87.3258 122.642 87.4278 122.294 87.6318 122.03C87.8238 121.766 88.0938 121.634 88.4418 121.634C88.7178 121.634 88.9398 121.724 89.1078 121.904C89.2878 122.072 89.3778 122.294 89.3778 122.57C89.3778 122.858 89.3058 123.074 89.1618 123.218C89.0298 123.362 88.8618 123.422 88.6578 123.398C88.6698 123.554 88.7298 123.692 88.8378 123.812C88.9458 123.92 89.1198 123.974 89.3598 123.974C89.7438 123.974 90.0378 123.758 90.2418 123.326C90.4578 122.894 90.6738 122.186 90.8898 121.202C90.3618 121.094 89.9418 120.866 89.6298 120.518C89.3298 120.17 89.1798 119.702 89.1798 119.114C89.1798 118.19 89.5518 117.44 90.2958 116.864C91.0398 116.288 92.2458 116 93.9138 116H96.6498L95.6958 120.464C95.5758 120.98 95.4738 121.43 95.3898 121.814C95.3058 122.198 95.2638 122.462 95.2638 122.606C95.2638 123.11 95.5038 123.362 95.9838 123.362C96.2118 123.362 96.4158 123.308 96.5958 123.2C96.4638 124.34 95.8998 124.976 94.9038 125.108C94.2198 125.108 93.6918 124.928 93.3198 124.568C92.9598 124.196 92.7798 123.74 92.7798 123.2C92.7798 122.852 92.8878 122.18 93.1038 121.184C92.7798 121.256 92.4438 121.292 92.0958 121.292C91.8798 122.216 91.6698 122.942 91.4658 123.47C91.2618 123.998 90.9918 124.406 90.6558 124.694C90.3198 124.97 89.8818 125.108 89.3418 125.108ZM92.9778 120.446C93.1098 120.446 93.2058 120.434 93.2658 120.41L94.0218 116.972H93.5898C92.8938 116.972 92.3598 117.164 91.9878 117.548C91.6278 117.92 91.4478 118.424 91.4478 119.06C91.4478 119.984 91.8798 120.446 92.7438 120.446H92.9778Z" fill="black"/>
</svg>
