<svg width="109" height="135" viewBox="0 0 109 135" fill="none" xmlns="http://www.w3.org/2000/svg">
<path d="M28.41 117.976C27.654 118 27.072 118.294 26.664 118.858C26.268 119.422 26.07 120.316 26.07 121.54C26.07 122.164 26.112 122.548 26.196 122.692C26.28 122.824 26.322 122.902 26.322 122.926C25.614 122.926 25.086 122.782 24.738 122.494C24.39 122.206 24.216 121.714 24.216 121.018C24.216 120.214 24.426 119.476 24.846 118.804C25.278 118.12 25.974 117.568 26.934 117.148C27.894 116.716 29.13 116.5 30.642 116.5C30.942 116.5 31.35 116.53 31.866 116.59C32.79 116.674 33.426 116.716 33.774 116.716C34.446 116.716 35.016 116.644 35.484 116.5C35.424 116.668 35.376 116.836 35.34 117.004C35.244 117.34 35.148 117.622 35.052 117.85C34.956 118.066 34.794 118.258 34.566 118.426C34.35 118.582 34.056 118.66 33.684 118.66C32.964 118.66 32.046 118.54 30.93 118.3L28.41 130H25.818L28.41 117.976ZM31.9083 130.108C31.2603 130.108 30.7503 129.91 30.3783 129.514C29.9943 129.106 29.8023 128.614 29.8023 128.038C29.8023 127.63 29.8983 127.306 30.0903 127.066C30.2823 126.814 30.5463 126.688 30.8823 126.688C31.1703 126.688 31.4043 126.778 31.5843 126.958C31.7643 127.138 31.8543 127.354 31.8543 127.606C31.8543 127.894 31.7823 128.116 31.6383 128.272C31.4943 128.416 31.3263 128.476 31.1343 128.452C31.1343 128.908 31.3683 129.136 31.8363 129.136C32.1603 129.136 32.4303 129.01 32.6463 128.758C32.8623 128.494 33.0483 128.104 33.2043 127.588C33.3603 127.072 33.5223 126.364 33.6903 125.464C33.9183 124.252 34.1823 123.322 34.4823 122.674C34.7943 122.026 35.1483 121.588 35.5443 121.36C35.9523 121.12 36.4503 121 37.0383 121H39.6843L38.7303 125.464C38.6103 125.98 38.5083 126.43 38.4243 126.814C38.3403 127.198 38.2983 127.462 38.2983 127.606C38.2983 128.11 38.5383 128.362 39.0183 128.362C39.3543 128.362 39.6243 128.248 39.8283 128.02C40.0323 127.792 40.2663 127.378 40.5303 126.778H41.2863C40.5303 128.998 39.3963 130.108 37.8843 130.108C37.2243 130.108 36.7143 129.922 36.3543 129.55C35.9943 129.178 35.8143 128.728 35.8143 128.2C35.8143 127.78 35.9463 126.964 36.2103 125.752L37.0563 121.918C36.6003 121.918 36.2283 122.014 35.9403 122.206C35.6643 122.398 35.4303 122.722 35.2383 123.178C35.0463 123.634 34.8663 124.276 34.6983 125.104C34.4343 126.46 34.2063 127.462 34.0143 128.11C33.8343 128.746 33.5823 129.238 33.2583 129.586C32.9343 129.934 32.4843 130.108 31.9083 130.108ZM42.6834 130.108C41.9994 130.108 41.4294 129.874 40.9734 129.406C40.5174 128.938 40.2894 128.206 40.2894 127.21C40.2894 126.322 40.4634 125.392 40.8114 124.42C41.1714 123.436 41.6994 122.608 42.3954 121.936C43.1034 121.252 43.9434 120.91 44.9154 120.91C45.4074 120.91 45.7734 120.994 46.0134 121.162C46.2534 121.33 46.3734 121.552 46.3734 121.828V121.954L46.5714 121H49.1634L47.8674 127.12C47.8194 127.3 47.7954 127.492 47.7954 127.696C47.7954 128.212 48.0414 128.47 48.5334 128.47C48.8694 128.47 49.1574 128.314 49.3974 128.002C49.6494 127.69 49.8474 127.282 49.9914 126.778H50.7474C50.3034 128.074 49.7514 128.956 49.0914 129.424C48.4434 129.88 47.7894 130.108 47.1294 130.108C46.6254 130.108 46.2174 129.97 45.9054 129.694C45.6054 129.406 45.4254 128.992 45.3654 128.452C45.0174 128.944 44.6274 129.346 44.1954 129.658C43.7754 129.958 43.2714 130.108 42.6834 130.108ZM43.8534 128.362C44.1534 128.362 44.4474 128.224 44.7354 127.948C45.0354 127.66 45.2394 127.27 45.3474 126.778L46.2114 122.71C46.2114 122.554 46.1514 122.404 46.0314 122.26C45.9114 122.104 45.7254 122.026 45.4734 122.026C44.9934 122.026 44.5614 122.308 44.1774 122.872C43.7934 123.424 43.4934 124.096 43.2774 124.888C43.0614 125.668 42.9534 126.358 42.9534 126.958C42.9534 127.558 43.0374 127.942 43.2054 128.11C43.3854 128.278 43.6014 128.362 43.8534 128.362ZM52.734 130.072C51.738 130.072 50.988 129.778 50.484 129.19C49.992 128.602 49.746 127.816 49.746 126.832C49.746 125.872 50.004 124.552 50.52 122.872C51.036 121.18 51.72 119.692 52.572 118.408C53.424 117.124 54.342 116.482 55.326 116.482C56.646 116.482 57.306 117.304 57.306 118.948C57.306 120.112 56.814 121.552 55.83 123.268C56.082 123.388 56.31 123.568 56.514 123.808C57.042 123.808 57.612 123.694 58.224 123.466C58.848 123.238 59.376 122.974 59.808 122.674L59.97 123.16C59.646 123.508 59.214 123.814 58.674 124.078C58.146 124.33 57.564 124.51 56.928 124.618C56.988 124.846 57.018 125.146 57.018 125.518C57.018 126.322 56.844 127.072 56.496 127.768C56.148 128.464 55.65 129.022 55.002 129.442C54.354 129.862 53.598 130.072 52.734 130.072ZM53.526 128.452C53.898 128.452 54.222 128.326 54.498 128.074C54.786 127.822 55.002 127.504 55.146 127.12C55.302 126.736 55.38 126.34 55.38 125.932C55.38 125.488 55.326 125.158 55.218 124.942C55.134 124.978 55.044 125.008 54.948 125.032C54.852 125.044 54.726 125.05 54.57 125.05C54.282 125.05 54.054 124.972 53.886 124.816C53.718 124.66 53.634 124.444 53.634 124.168C53.634 123.808 53.742 123.544 53.958 123.376C54.186 123.208 54.498 123.112 54.894 123.088C55.242 122.452 55.536 121.75 55.776 120.982C56.028 120.202 56.154 119.5 56.154 118.876C56.154 118.516 56.106 118.264 56.01 118.12C55.926 117.964 55.776 117.886 55.56 117.886C55.092 117.886 54.612 118.468 54.12 119.632C53.64 120.796 53.238 122.122 52.914 123.61C52.59 125.098 52.428 126.19 52.428 126.886C52.428 127.93 52.794 128.452 53.526 128.452ZM64.618 130.108C63.934 130.108 63.406 129.928 63.034 129.568C62.674 129.196 62.494 128.74 62.494 128.2C62.494 127.852 62.632 127.012 62.908 125.68H60.91L59.992 130H57.4L59.308 121H61.9L61.126 124.6H63.142L63.952 121H66.364L65.41 125.464C65.29 125.98 65.188 126.43 65.104 126.814C65.02 127.198 64.978 127.462 64.978 127.606C64.978 128.11 65.218 128.362 65.698 128.362C66.034 128.362 66.304 128.248 66.508 128.02C66.712 127.792 66.946 127.378 67.21 126.778H67.966C67.21 128.998 66.094 130.108 64.618 130.108ZM69.367 130.108C68.683 130.108 68.113 129.874 67.657 129.406C67.201 128.938 66.973 128.206 66.973 127.21C66.973 126.322 67.147 125.392 67.495 124.42C67.855 123.436 68.383 122.608 69.079 121.936C69.787 121.252 70.627 120.91 71.599 120.91C72.091 120.91 72.457 120.994 72.697 121.162C72.937 121.33 73.057 121.552 73.057 121.828V121.954L73.255 121H75.847L74.551 127.12C74.503 127.3 74.479 127.492 74.479 127.696C74.479 128.212 74.725 128.47 75.217 128.47C75.553 128.47 75.841 128.314 76.081 128.002C76.333 127.69 76.531 127.282 76.675 126.778H77.431C76.987 128.074 76.435 128.956 75.775 129.424C75.127 129.88 74.473 130.108 73.813 130.108C73.309 130.108 72.901 129.97 72.589 129.694C72.289 129.406 72.109 128.992 72.049 128.452C71.701 128.944 71.311 129.346 70.879 129.658C70.459 129.958 69.955 130.108 69.367 130.108ZM70.537 128.362C70.837 128.362 71.131 128.224 71.419 127.948C71.719 127.66 71.923 127.27 72.031 126.778L72.895 122.71C72.895 122.554 72.835 122.404 72.715 122.26C72.595 122.104 72.409 122.026 72.157 122.026C71.677 122.026 71.245 122.308 70.861 122.872C70.477 123.424 70.177 124.096 69.961 124.888C69.745 125.668 69.637 126.358 69.637 126.958C69.637 127.558 69.721 127.942 69.889 128.11C70.069 128.278 70.285 128.362 70.537 128.362ZM78.0136 130.108C77.3656 130.108 76.8676 129.916 76.5196 129.532C76.1716 129.136 75.9976 128.65 75.9976 128.074C75.9976 127.642 76.0996 127.294 76.3036 127.03C76.4956 126.766 76.7656 126.634 77.1136 126.634C77.3896 126.634 77.6116 126.724 77.7796 126.904C77.9596 127.072 78.0496 127.294 78.0496 127.57C78.0496 127.858 77.9776 128.074 77.8336 128.218C77.7016 128.362 77.5336 128.422 77.3296 128.398C77.3416 128.554 77.4016 128.692 77.5096 128.812C77.6176 128.92 77.7916 128.974 78.0316 128.974C78.4156 128.974 78.7096 128.758 78.9136 128.326C79.1296 127.894 79.3456 127.186 79.5616 126.202C79.0336 126.094 78.6136 125.866 78.3016 125.518C78.0016 125.17 77.8516 124.702 77.8516 124.114C77.8516 123.19 78.2236 122.44 78.9676 121.864C79.7116 121.288 80.9176 121 82.5856 121H85.3216L84.3676 125.464C84.2476 125.98 84.1456 126.43 84.0616 126.814C83.9776 127.198 83.9356 127.462 83.9356 127.606C83.9356 128.11 84.1756 128.362 84.6556 128.362C84.8836 128.362 85.0876 128.308 85.2676 128.2C85.1356 129.34 84.5716 129.976 83.5756 130.108C82.8916 130.108 82.3636 129.928 81.9916 129.568C81.6316 129.196 81.4516 128.74 81.4516 128.2C81.4516 127.852 81.5596 127.18 81.7756 126.184C81.4516 126.256 81.1156 126.292 80.7676 126.292C80.5516 127.216 80.3416 127.942 80.1376 128.47C79.9336 128.998 79.6636 129.406 79.3276 129.694C78.9916 129.97 78.5536 130.108 78.0136 130.108ZM81.6496 125.446C81.7816 125.446 81.8776 125.434 81.9376 125.41L82.6936 121.972H82.2616C81.5656 121.972 81.0316 122.164 80.6596 122.548C80.2996 122.92 80.1196 123.424 80.1196 124.06C80.1196 124.984 80.5516 125.446 81.4156 125.446H81.6496Z" fill="black"/>
<path d="M54.5 0L109 55.7948L103.787 61.1311L98.9803 56.2691V104H69.3268V66.0525H39.6732V104H10.0197V56.2691L5.21254 61.1311L0 55.7948L54.5 0Z" fill="black"/>
</svg>
